<svg width="20" height="20" viewBox="0 0 20 20" fill="none" xmlns="http://www.w3.org/2000/svg">
<path d="M10 15.2083C12.9167 15.2083 16.0417 13.75 16.0417 9.99999C16.0417 6.24999 12.9167 4.79166 10 4.79166C7.08334 4.79166 3.95834 6.24999 3.95834 9.99999C3.95834 10.8582 4.122 11.5963 4.40937 12.2244C4.58849 12.616 4.68897 13.0477 4.60962 13.4709L4.39113 14.6362C4.28313 15.2123 4.78774 15.7169 5.36376 15.6089L8.03658 15.1077C8.24668 15.0683 8.46206 15.0718 8.67318 15.1053C9.11253 15.1749 9.55865 15.2083 10 15.2083Z" stroke="#8A8AA3" stroke-width="1.5" stroke-linecap="round" stroke-linejoin="round"/>
<path d="M7.91668 10C7.91668 10.2301 7.73013 10.4167 7.50001 10.4167C7.26989 10.4167 7.08334 10.2301 7.08334 10C7.08334 9.76989 7.26989 9.58334 7.50001 9.58334C7.73013 9.58334 7.91668 9.76989 7.91668 10Z" stroke="#8A8AA3" stroke-linecap="round" stroke-linejoin="round"/>
<path d="M10.4167 10C10.4167 10.2301 10.2301 10.4167 10 10.4167C9.76989 10.4167 9.58334 10.2301 9.58334 10C9.58334 9.76989 9.76989 9.58334 10 9.58334C10.2301 9.58334 10.4167 9.76989 10.4167 10Z" stroke="#8A8AA3" stroke-linecap="round" stroke-linejoin="round"/>
<path d="M12.9167 10C12.9167 10.2301 12.7301 10.4167 12.5 10.4167C12.2699 10.4167 12.0833 10.2301 12.0833 10C12.0833 9.76989 12.2699 9.58334 12.5 9.58334C12.7301 9.58334 12.9167 9.76989 12.9167 10Z" stroke="#8A8AA3" stroke-linecap="round" stroke-linejoin="round"/>
</svg>
