<svg width="20" height="20" viewBox="0 0 20 20" fill="none" xmlns="http://www.w3.org/2000/svg">
<path d="M9.99992 15.2083C12.9166 15.2083 16.0416 13.75 16.0416 9.99999C16.0416 6.24999 12.9166 4.79166 9.99992 4.79166C7.08325 4.79166 3.95825 6.24999 3.95825 9.99999C3.95825 10.8582 4.12191 11.5963 4.40927 12.2244C4.5884 12.616 4.68888 13.0477 4.60953 13.4709L4.39104 14.6362C4.28303 15.2123 4.78765 15.7169 5.36367 15.6089L8.03649 15.1077C8.24658 15.0683 8.46197 15.0718 8.67309 15.1053C9.11244 15.1749 9.55856 15.2083 9.99992 15.2083Z" stroke="#8A8AA3" stroke-width="1.5" stroke-linecap="round" stroke-linejoin="round"/>
<path d="M7.91658 10C7.91658 10.2301 7.73004 10.4167 7.49992 10.4167C7.2698 10.4167 7.08325 10.2301 7.08325 10C7.08325 9.76989 7.2698 9.58334 7.49992 9.58334C7.73004 9.58334 7.91658 9.76989 7.91658 10Z" stroke="#8A8AA3" stroke-linecap="round" stroke-linejoin="round"/>
<path d="M10.4166 10C10.4166 10.2301 10.23 10.4167 9.99992 10.4167C9.7698 10.4167 9.58325 10.2301 9.58325 10C9.58325 9.76989 9.7698 9.58334 9.99992 9.58334C10.23 9.58334 10.4166 9.76989 10.4166 10Z" stroke="#8A8AA3" stroke-linecap="round" stroke-linejoin="round"/>
<path d="M12.9166 10C12.9166 10.2301 12.73 10.4167 12.4999 10.4167C12.2698 10.4167 12.0833 10.2301 12.0833 10C12.0833 9.76989 12.2698 9.58334 12.4999 9.58334C12.73 9.58334 12.9166 9.76989 12.9166 10Z" stroke="#8A8AA3" stroke-linecap="round" stroke-linejoin="round"/>
</svg>
